A tale about a happily married couple who would like to have children. Tracy teaches infants, Andy's a college professor. Things are never the same after she is taken to hospital and operated upon by Jed, a "know all" doctor. 

Malice.avi
      Format : AVI
      Format/Info : Audio Video Interleave
      File size : 1.22 GiB
      Duration : 1h 42mn
      Overall bit rate : 1 708 Kbps
      Writing application : VirtualDubMod 1.5.4.1 (build 2178/release)
      Writing library : VirtualDubMod build 2178/release
   Video
      Format : MPEG-4 Visual
      Format profile : Streaming Video@L1
      Format settings, BVOP : Yes
      Format settings, QPel : No
      Format settings, GMC : No warppoints
      Format settings, Matrix : Custom
      Codec ID : XVID
      Codec ID/Hint : XviD
      Duration : 1h 42mn
      Bit rate : 1 317 Kbps
      Width : 720 pixels
      Height : 544 pixels
      Display aspect ratio : 4/3
      Frame rate : 25.000 fps
      Resolution : 24 bits
      Colorimetry : 4:2:0
      Scan type : Progressive
      Bits/(Pixel*Frame) : 0.135
      Stream size : 964 MiB (77%)
      Writing library : XviD 50
   Audio
      Format : AC-3
      Format/Info : Audio Coding 3
      Codec ID : 2000
      Duration : 1h 42mn
      Bit rate mode : Constant
      Bit rate : 384 Kbps
      Channel(s) : 6 channels
      Channel positions : Front: L C R, Surround: L R, LFE
      Sampling rate : 48.0 KHz
      Stream size : 281 MiB (22%)
      Alignment : Aligned on interleaves
      Interleave, duration : 96 ms (2.40 video frames)
      Interleave, preload duration : 96 ms
      Language : English

ENJOY!